<?xml version="1.0" encoding="utf-8"?>

<!DOCTYPE svg PUBLIC "-//W3C//DTD SVG 1.1//EN" "http://www.w3.org/Graphics/SVG/1.1/DTD/svg11.dtd">
<svg version="1.1" id="Layer_1" xmlns="http://www.w3.org/2000/svg" xmlns:xlink="http://www.w3.org/1999/xlink" x="0px" y="0px"
	 viewBox="0 0 2643 1614" enable-background="new 0 0 2643 1614" xml:space="preserve">
<g>
	<path d="M976.5177,1082.5286c-7.0779,25.3317-10.062,51.1154-14.2476,76.656c-3.1173,19.0216-5.8079,38.1444-7.7654,57.3165
		c-2.0219,19.8015-4.5806,39.5897-4.7101,59.5546c-0.0151,2.3252,0.2087,4.8474-0.5798,6.9385
		c-3.5266,9.3534-2.6452,19.0898-2.6222,28.679c0.0744,30.9718,0.1155,61.953,0.9564,92.9093
		c0.4323,15.9116,1.3109,32.004,4.1967,47.6062c3.4805,18.8177,7.5334,37.7349,18.3024,54.3563
		c7.6809,11.8552,8.3817,25.8085,9.8508,39.3514c0.9262,8.5375-0.3149,17.12,1.5885,25.7814
		c1.8414,8.379-5.4042,15.8618-14.0726,15.9037c-26.3282,0.127-52.6572,0.08-78.986,0.0834
		c-52.6658,0.0067-105.3316,0.0122-157.9974-0.004c-17.9423-0.0055-17.6352-0.0452-18.1637-17.6567
		c-0.8638-28.7858,9.751-53.2743,27.2487-75.3174c2.0585-2.5934,4.4425-4.9946,6.9712-7.1357
		c7.3814-6.2499,12.4072-14.1718,16.4619-22.7659c11.5131-24.4022,15.846-50.4695,19.142-77.0443
		c5.3467-43.1102,2.6714-86.3442,3.8885-129.51c-4.1515-20.3557-1.272-41.092-3.6238-61.6831
		c-2.6835-23.4945-5.4951-46.925-10.2908-70.0249c-5.2-25.0472-11.7917-49.8029-17.5827-74.7308
		c-5.6937-24.5096-6.4867-49.4164-5.1836-74.4159c2.0161-38.6781,9.5919-76.5302,17.5603-114.2966
		c6.1808-29.294,12.2322-58.6326,19.383-87.6951c2.4202-9.8361,0.8209-17.8983-2.8253-26.8213
		c-9.5517-23.3756-18.9947-46.8403-25.294-71.3784c-1.1317-4.4083-3.0983-3.834-6.5085-2.5203
		c-22.6443,8.7238-46.0267,13.6079-70.2408,9.4082c-12.7582-2.2129-24.384-7.7896-35.2255-15.522
		c-11.7134-8.3543-22.2593-17.9561-33.1573-27.2007c-5.3233-4.5157-5.8411-4.801-10.2422,0.439
		c-8.7807,10.4545-17.2917,21.1349-26.0162,31.6373c-10.3932,12.5111-20.9017,24.9264-31.3435,37.3972
		c-4.2693,5.0989-9.1079,9.8478-12.6247,15.4261c-10.3989,16.4944-25.0323,29.3445-37.7001,43.8043
		c-15.0548,17.1844-27.4442,36.7748-45.7119,51.2194c-9.6799,7.6541-16.9323,17.9066-24.4908,27.6318
		c-4.1033,5.2795-7.994,10.7504-13.0997,15.0238c-4.5909,3.8423-4.2103,6.9722-1.2886,11.8623
		c17.5446,29.3647,30.5211,60.72,38.0816,94.0837c8.1531,35.9789,9.4508,72.222-2.8014,107.5023
		c-5.9602,17.1625-15.1786,33.1827-25.7657,48.1578c-1.9247,2.7225-4.2003,5.1418-5.0511,8.4938
		c-0.3213,1.2657-0.6187,2.7338-1.4404,3.6479c-20.1729,22.4419-34.3215,48.5369-46.5666,75.8627
		c-7.1884,16.0416-11.2519,33.0837-12.1841,50.2368c-1.0168,18.7091,4.5819,36.3971,19.6789,49.3137
		c8.4665,7.2438,18.788,6.2369,28.6553,4.3342c9.2675-1.7874,16.9027-7.0142,24.4638-12.8475
		c15.4915-11.9512,22.1266-29.5814,31.4226-45.5573c0.8364-1.4375,1.4689-2.9941,2.3154-4.4249
		c3.5351-5.9746,3.5618-5.688,9.2958-1.1359c12.5022,9.9258,25.2869,19.4952,37.9363,29.2361
		c6.9917,5.3838,6.8434,5.3057,1.4224,12.24c-12.6901,16.2327-26.3579,31.6864-41.1245,45.9403
		c-23.4818,22.6664-50.6719,39.3241-84.0743,42.2598c-17.9815,1.5802-35.1331-3.3813-50.4086-12.8864
		c-14.6736-9.1304-26.8491-20.9838-37.1854-35.2047c-8.581-11.806-14.7447-24.4419-19.6713-37.8834
		c-7.9027-21.5615-8.5993-43.6118-3.6443-65.9095c7.1717-32.2736,19.1498-63.053,29.5048-94.3333
		c8.058-24.3416,16.4161-48.5785,22.9721-73.396c5.1991-19.6812,9.3004-39.5805,10.6639-59.8712
		c0.5024-7.4767-1.3502-15.1402-2.3795-22.6843c-1.4423-10.5706-3.7272-20.9838-7.2177-31.0711
		c-1.8054-5.2175-3.153-5.1422-7.5236-1.4932c-8.5963,7.1769-17.1724,14.4221-26.2156,21.0092
		c-13.3387,9.7158-26.7417,19.4218-40.7372,28.1365c-15.4514,9.6212-31.2954,18.5418-47.7792,26.5368
		c-15.6041,7.5684-31.3131,14.5863-47.5782,20.4265c-29.3111,10.5245-59.6776,16.1688-90.6137,19.0231
		c-6.6691,0.6152-7.5125,0.006-8.862-6.3213c-0.2775-1.3011-0.4639-2.6298-0.5818-3.9554
		c-0.6195-6.9626-0.1908-7.8505,6.7573-9.6622c23.3831-6.0969,45.2716-16.0376,65.9529-28.0772
		c22.7103-13.2209,43.4478-29.4734,62.5163-47.6897c0.345-0.3295,0.2401-1.1298,0.4543-2.3138
		c-5.2375,0.5239-9.8755,2.7469-13.9586,5.121c-16.317,9.4876-34.5053,13.996-51.9745,20.3937
		c-20.3776,7.4628-41.7766,11.2163-62.6425,16.9109c-4.557,1.2437-7.7406,0.9874-9.1959-4.1033
		c-0.3623-1.2673-1.08-2.4313-1.6138-3.6517c-3.0194-6.9028-3.0678-6.9824,3.0422-10.9053
		c10.935-7.0208,21.8905-14.0118,32.9207-20.8817c28.7068-17.8793,56.5773-36.9883,84.036-56.7181
		c14.7893-10.6265,30.128-20.5316,44.4637-31.7291c7.6384-5.9662,15.6198-11.5535,23.1405-17.7267
		c5.2032-4.2709,10.5092-8.8366,16.3412-12.531c3.8709-2.4521,4.7321-5.0813,1.3603-9.7281
		c-11.1676-15.3901-20.0638-32.0605-27.2221-49.805c-4.9768-12.337-9.5747-24.6813-13.2408-37.4717
		c-3.8986-13.6019-5.5162-27.3539-5.6657-41.4259c-0.2304-21.6908-0.457-43.3073,6.8844-64.2175
		c6.6378-18.9063,14.9398-36.7513,26.5668-53.3211c7.526-10.7255,16.1802-20.4428,24.122-30.7554
		c5.8042-7.537,13.4348-13.5439,19.0691-21.5313c12.5017-17.7227,21.8392-36.2468,22.1988-58.5982
		c0.2567-15.9532-1.2823-31.9002,1.309-47.8958c2.7907-17.2263,11.1087-30.9384,22.6476-43.5006
		c9.7781-10.6452,22.3499-17.5107,33.4243-26.3755c3.45-2.7617,6.2625-5.6935,8.806-9.2833
		c20.4452-28.8559,29.1104-62.3633,38.278-95.7092c7.942-28.8882,13.6513-58.424,23.6638-86.6924
		c6.8661-19.3852,14.8763-38.2671,27.3763-55.1931c6.6644-9.0241,13.5549-18.061,20.7584-26.4358
		c12.4652-14.4923,27.6972-26.4129,45.0639-35.0889c6.2331-3.1139,12.5907-5.9792,18.8148-9.1104
		c16.6203-8.3613,34.5124-11.8205,52.7794-13.8866c9.2236-1.0432,18.3915-2.0053,27.7385-2.3669
		c43.0249-1.6648,83.1345,9.334,121.6727,26.9125c8.5739,3.9108,16.7958,9.866,25.2982,13.4445
		c13.5073,5.685,24.064,15.173,34.3565,24.1188c10.9387,9.5073,23.4352,18.6372,29.7292,32.9458
		c2.8849,6.5584,4.6851,6.567,10.0314,2.13c1.0249-0.8505,1.9319-1.9687,3.1036-2.4981
		c19.5825-8.8489,37.3842-21.0946,58.7179-26.747c32.6496-8.6507,65.681-9.9909,98.9736-8.9702
		c26.5483,0.8139,53.0069,3.0504,79.4291,6.2719c19.0398,2.3214,38.127,4.6682,57.394,5.6447
		c13.6013,0.6893,27.2202,2.2338,40.8353,1.6487c16.9088-0.7266,33.7593-2.9867,50.6676-3.4886
		c11.3251-0.3362,22.4607-2.1113,33.6464-3.2c13.1783-1.2827,26.4398-1.4222,39.623-3.6732
		c11.286-1.927,23.0394-2.7347,34.4708-3.1161c33.5789-1.1205,67.1594-3.0928,100.8049-2.2185
		c20.9601,0.5446,41.9082,0.9177,62.8693,1.7705c23.8917,0.972,47.7629,2.6687,71.4606,5.0085
		c14.9432,1.4754,30.0662,3.0125,45.0298,5.3139c26.9659,4.1474,53.8315,8.7462,80.426,14.7726
		c25.8499,5.8576,51.397,12.7459,76.5934,21.1959c25.2588,8.4709,50.3558,17.2338,74.4587,28.5403
		c13.4836,6.3251,27.3052,11.9821,39.8113,20.4455c9.3337,6.3165,19.53,11.4536,29.658,16.4794
		c15.9331,7.9067,29.4574,19.1621,43.4019,29.8864c2.8644,2.2031,6.3831,3.5686,9.1941,5.826
		c17.5225,14.0711,35.4344,27.683,51.053,43.9903c7.3677,7.6927,16.0947,14.2466,22.5791,22.5819
		c8.5725,11.0194,19.5544,20.0665,26.4021,32.4524c0.8025,1.4518,1.5054,3.1028,2.6934,4.1754
		c15.4998,13.9915,24.728,32.3533,35.1985,49.8926c6.2908,10.5376,13.6563,20.4406,19.8123,31.0503
		c26.3723,45.4513,45.1519,94.2212,62.0764,143.7672c22.6301,66.249,37.8005,134.4861,53.9727,202.4628
		c6.0225,25.3143,9.2288,51.0499,12.7996,76.748c2.8965,20.8483,8.5461,41.0137,15.718,60.7321
		c31.5867,86.8439,72.417,169.5596,112.9587,252.4026c4.6836,9.5713,8.9795,19.3317,13.5195,28.9741
		c2.9937,6.3569,5.2778,6.9882,10.4712,3.0844c17.4658-13.1289,34.5513-9.5984,45.2112,10.0385
		c3.1221,5.7513,6.8467,11.4226,8.3518,18.004c2.72,11.8943,11.2659,18.6184,21.0085,24.694
		c4.9724,3.101,9.8386,7.0522,13.3237,11.6926c4.8013,6.3922,11.4153,8.8352,18.2847,11.2991
		c1.5496,0.5559,3.2625,0.6437,4.8877,1.0031c15.9873,3.5358,27.5159,12.8069,34.365,27.5676
		c3.9167,8.4412,9.5056,14.8087,17.4016,19.9392c9.3645,6.085,14.5076,15.1971,14.1509,26.8662
		c-0.2625,8.5804-3.8936,14.0454-12.0303,16.1414c-5.4395,1.401-11.1482,2.4991-16.7253,2.4513
		c-8.7605-0.075-16.905,2.8062-25.3701,3.9198c-10.842,1.4266-21.7944,2.0599-32.7126,2.8483
		c-4.646,0.3352-9.3276,0.1559-13.991,0.2817c-15.8,0.4261-28.1934-7.2725-38.9226-17.5441
		c-7.189-6.8821-13.8464-14.3375-21.2756-21.0332c-4.1909-3.777-8.6936-7.7111-11.4246-12.5039
		c-6.49-11.3914-17.3835-16.0303-28.5205-20.4935c-19.9807-8.0072-35.2622-21.7089-47.8999-38.7537
		c-1.5205-2.0508-1.5847-4.3524-1.6509-6.6464c-0.3806-13.2203,0.9116-26.0715,9.8982-36.7096
		c4.3179-5.1116,3.3374-9.832,0.863-15.4742c-35.1494-80.1521-70.1184-160.3831-105.1099-240.6044
		c-7.9668-18.2644-15.8142-36.5811-23.8145-54.8309c-1.437-3.2778-2.3726-6.888-5.5115-9.9066
		c-1.9438,2.213-0.4172,4.4426-0.3796,6.4511c0.3416,18.2675,2.3193,36.5872-1.8547,54.7033
		c-0.1484,0.6435-0.2295,1.3314-0.1819,1.987c1.9187,26.3402-4.1155,52.533-1.8965,78.7984
		c1.8442,21.8342,5.2285,43.5288,11.3999,64.6774c5.0444,17.2859,11.7014,34.0145,18.5317,50.5997
		c5.8074,14.1007,13.3748,27.4989,20.5078,41.0262c10.8755,20.6249,22.1716,41.028,33.0657,61.6433
		c15.7444,29.7938,29.1733,60.6344,38.6658,92.9723c5.5068,18.7604,9.6692,37.9528,13.6597,57.1125
		c6.6233,31.8032,17.8521,61.8157,34.0305,89.8998c6.5085,11.2981,9.9478,23.3456,10.5107,36.0321
		c0.7078,15.9508,0.3479,31.9568,0.1675,47.9359c-0.0989,8.7509-1.1575,9.5444-9.9231,9.8431
		c-1.6646,0.0568-3.333,0.0131-4.9995,0.0131c-83.9985,0.0002-167.9973,0.0005-251.9958-0.0009
		c-2.3333-0.0001-4.6672-0.0558-6.9995-0.0186c-4.8164,0.077-7.3782-1.6946-7.1685-7.0798
		c0.8694-22.3246-2.21-44.6052-0.9766-66.9353c0.9377-16.979,5.5605-25.2584,20.7849-30.5289
		c8.1602-2.8248,12.0706-8.1926,13.4917-15.6165c3.761-19.644,4.5967-39.285,1.823-59.3571
		c-2.0964-15.1733-5.366-30.0459-8.614-44.9032c-2.9707-13.5897-8.4167-26.5692-13.5581-39.5551
		c-9.1038-22.9934-22.3123-43.824-34.6494-65.0568c-4.9084-8.4479-10.8433-16.5038-16.5815-24.5648
		c-9.9854-14.0273-20.5935-27.5793-31.5903-40.7386c-4.6699-5.588-11.2852-10.4896-15.4723-16.1288
		c-6.8204-9.1858-14.9681-16.83-22.7679-24.8558c-17.6498-18.1614-35.08-36.6633-54.0969-53.3167
		c-9.8368-8.6143-17.8029-18.6863-27.1166-27.6036c-17.9752-17.2104-35.7827-34.6213-51.1592-54.267
		c-5.6309-7.194-12.3077-10.2652-21.5408-9.6185c-9.6143,0.6734-19.3794,0.6825-28.9675-0.2104
		c-8.5352-0.7948-12.6334,2.9828-15.8473,10.155c-9.5499,21.3118-17.8811,43.0488-24.3259,65.4983
		c-15.7604,54.8986-22.0957,110.9398-20.4802,167.9673c0.3208,11.3247,0.6124,22.6868,0.0713,33.991
		c-0.8632,18.0229,1.6735,35.9165,3.2949,53.6495c2.4744,27.0609,5.4476,54.1847,9.899,81.101
		c5.321,32.1755,15.094,63.0562,24.8195,94.0105c3.1879,10.1466,6.1552,20.3699,8.9174,30.6404
		c3.2625,12.1306,0.5684,24.5695,1.4524,36.8397c0.2245,3.1171-1.8147,3.6703-4.5796,3.6199
		c-12.3192-0.2251-24.6418-0.3679-36.9631-0.3684c-54.329-0.0023-108.6594-0.1584-162.9861,0.2146
		c-17.3162,0.119-34.6552-1.4838-51.9547,0.407c-3.3972,0.3712-4.7797-1.2006-4.9888-4.5164
		c-1.5132-23.9954-1.5365-47.7007,5.3925-71.2429c3.1553-10.7209,8.8729-19.4789,15.6832-27.2557
		c19.2977-22.0365,28.5001-47.2869,29.6487-76.39c0.8688-22.0145,2.0566-44.0057-2.4146-65.6471
		c-4.1023-19.856-10.2017-39.2428-16.752-58.468c-12.0239-35.2903-22.0043-71.2001-27.528-108.0715
		c-2.5977-17.34-3.6525-35.0248-5.3878-52.5239c-3.1396-31.6599-0.4841-63.2759-1.8137-94.8755
		c-0.3932-9.3434,0.6053-18.628,1.8116-27.9023c1.0992-8.4505,0.882-8.3926-7.3301-10.4254
		c-13.5455-3.353-27.4993-4.0807-41.1853-6.5585c-17.2581-3.1246-34.5856-5.8688-51.8928-8.7181
		c-4.2466-0.6992-8.5697-0.9673-12.791-1.78c-18.9193-3.6422-38.1161-5.5583-57.1731-8.0196
		c-12.3652-1.597-25.1317-2.303-37.5977-3.4954c-15.3213-1.4656-30.5461-1.9165-45.7615-1.2939
		c-18.2382,0.7462-36.4128,2.985-53.4344,10.4691c-2.4346,1.0704-4.8446,2.2072-7.2095,3.4231
		c-22.2572,11.4429-30.4575,31.3207-32.7067,54.7144c-1.5217,15.8279,2.0485,31.2292,4.9309,46.5288
		c5.7296,30.4105,11.4248,60.829,16.0759,91.4127c1.3861,9.1145,2.85,18.3367,2.7202,27.7644
		c-0.1177,8.5626,1.7408,17.1533,2.7328,25.6908c1.161,9.9937,1.5425,19.8419,1.2198,29.8243
		c-0.1714,5.3009-0.1837,10.5544,1.7236,15.7698c1.1019,3.0132,0.9458,6.5728,0.949,9.8867
		c0.0135,13.9932-0.8901,28.0326-0.0481,41.9698c1.6846,27.8855,2.0703,55.7922,3.0914,83.6782
		c0.4644,12.6793,2.0591,25.6891,3.6827,38.4935c1.9897,15.6909,4.6127,31.4642,4.9006,47.4363
		c0.1417,7.87,2.4855,15.6251,3.5385,23.5012c1.764,13.1976,2.9948,26.349,3.3597,39.6528
		c0.3024,11.019-2.2311,21.8887-1.1865,32.9161c0.3868,4.0839-1.7483,6.222-5.8596,6.3009
		c-2.3325,0.0447-4.6663,0.047-6.9994,0.0471c-75.6724,0.0021-151.3448,0.0018-227.0173,0.0009
		c-1.9999,0-4.0079,0.1021-5.9984-0.0389c-6.2287-0.4408-8.0939-2.1959-8.8349-8.5001c-0.271-2.3057-0.1837-4.6606-0.1623-6.9922
		c0.1161-12.6628,0.8397-25.3529,0.2324-37.9797c-0.5778-12.0143,4.1657-21.7599,13.7397-27.0847
		c11.3076-6.2889,14.3107-16.3395,16.3207-26.9801c2.6388-13.9683,3.4723-28.2632,5.036-42.401
		c4.4545-40.2762,2.7435-80.6206,1.49-120.7729c-1.9163-61.3732-10.5413-122.0817-29.7261-180.8292
		c-6.0388-18.4917-14.3144-35.8171-26.7487-50.9506C980.3094,1083.8705,979.2359,1082.5302,976.5177,1082.5286z"/>
</g>
</svg>
