<?xml version="1.0" encoding="UTF-8" standalone="no"?>
<svg
   xmlns:dc="http://purl.org/dc/elements/1.1/"
   xmlns:cc="http://creativecommons.org/ns#"
   xmlns:rdf="http://www.w3.org/1999/02/22-rdf-syntax-ns#"
   xmlns:svg="http://www.w3.org/2000/svg"
   xmlns="http://www.w3.org/2000/svg"
   xmlns:sodipodi="http://sodipodi.sourceforge.net/DTD/sodipodi-0.dtd"
   xmlns:inkscape="http://www.inkscape.org/namespaces/inkscape"
   version="1.1"
   id="Layer_1"
   x="0px"
   y="0px"
   viewBox="0 0 4154.9735 1576.117"
   xml:space="preserve"
   sodipodi:docname="ltr-elephant.svg"
   inkscape:version="0.92.1 r15371"
   width="4154.9736"
   height="1576.1171"
   inkscape:export-filename="/home/john/workspace/comps-20170607/img/ltr-elephant.png"
   inkscape:export-xdpi="30.45459"
   inkscape:export-ydpi="30.45459"><metadata
     id="metadata9"><rdf:RDF><cc:Work
         rdf:about=""><dc:format>image/svg+xml</dc:format><dc:type
           rdf:resource="http://purl.org/dc/dcmitype/StillImage" /><dc:title></dc:title></cc:Work></rdf:RDF></metadata><defs
     id="defs7" /><sodipodi:namedview
     pagecolor="#ffffff"
     bordercolor="#666666"
     borderopacity="1"
     objecttolerance="10"
     gridtolerance="10"
     guidetolerance="10"
     inkscape:pageopacity="0"
     inkscape:pageshadow="2"
     inkscape:window-width="1680"
     inkscape:window-height="1013"
     id="namedview5"
     showgrid="false"
     inkscape:zoom="0.12153872"
     inkscape:cx="1210.0707"
     inkscape:cy="788.05909"
     inkscape:window-x="1366"
     inkscape:window-y="0"
     inkscape:window-maximized="1"
     inkscape:current-layer="Layer_1"
     fit-margin-top="0"
     fit-margin-left="0"
     fit-margin-right="0"
     fit-margin-bottom="0" /><path
     d="m 2558.7755,1439.2305 c -4.163,-8.207 -13.477,-6.986 -21.169,-6.346 -28.719,2.389 -55.628,-30.793 -64.65,-54.966 -29.166,-78.14 -10.066,20.764 -71.589,-201.706 -9.468,-34.236 -24.495,-66.843 -29.829,-102.304 -2.554,-16.978 -11.841,-32.362 -11.881,-50.002 -0.02,-8.793 -2.966,-16.966 -5.772,-25.25904 -40.913,-120.903 -0.38,-24.99 -58.5,-182.676 -7.575,-20.552 -20.392,-40.055 -30.08,-60.183 -10.227,-21.246 -14.665,-44.997 -29.537,-63.964 -1.814,-2.314 -4.798,-5.537 -2.001,-8.604 2.393,-2.625 5.95,-5.068 9.914,-3.304 8.774,3.903 17.117,0.533 25.35,-1.509 20.254,-5.023 8.301,5 61.893,-18.909 9.191,-4.1 2.013,-14.642 -10.008,-11.322 -31.193,8.616 -62.815,7.27 -94.487,3.788 -7.378,-0.811 -12.368,-4.26 -15.391,-12.018 -22.509,-57.754 -51.386,-81.079 -68.78,-119.9 -17.172,-38.325 -67.977,-83.945 -87.969,-124.453 -22.888,-46.378 -33.111,-52.487 -39.07,-75.209 -7.381,-28.143 -24.142,-51.166 -45.969,-68.497 -77.546,-61.571 -80.364,-93.647 -119.619,-104.326 -7.269,-1.977 -13.672,-5.424 -20.034,-9.051 -33.45,-19.072 -49.898,-8.045 -65.123,-6.332 -20.122,2.264 -40.217,-1.544 -60.319,-0.078 -58.403,4.258 -102.85,-27.813 -143.362,-31.523 -17.385,-1.591997 -15.027,4.503 -94.464,-33.463997 -100.703,-48.129 -107.41,-83.469 -185.953,-59.309 -86.108,26.488 -85.585,11.372 -109.13,12.392 -2.487,0.108 -187.83605,4.057 -233.16105,17.314 -30.616,8.955 -144.288,4.003 -169.191,2.501 -2.491,-0.15 -77.498,-16.804 -90.822,-24.871 -43.394,-26.28 -230.099,-15.50200001 -299.608,25.221 -32.018,18.758 -86.672,45.657 -130.206,84.044997 -54.18,47.774 -142.762,158.188 -181.928998,219.595 -43.149,67.65 -36.344,93.119 -47.374,138.853 -6.792,28.164 -12.6209997,56.49 -14.0619997,85.863 -0.795,16.195 0.47,32.905 -3.816,49.107 -4.764,18.01 7.847,32.652 7.286,94.592 -0.089,9.833 3.9689997,19.558 1.7219997,29.568 -14.5749997,64.94 9.242,104.564 10.255,192.694 0.486,42.243 20.822,99.52704 8.58,131.40104 -8.41,21.897 15.447,12.367 12.06,33.548 -1.198,7.494 2.386,16.239 -6.349,21.477 -1.299,19.113 -2.848,38.214 -3.81,57.345 -0.878,17.472 12.664,49.703 20.906,34.357 1.336,-2.487 36.977,-77.162 25.43,-98.991 -20.318,-38.409 1.673,-36.029 -19.442,-78.133 -17.85,-35.593 -10.611,-50.05404 -9.511,-107.32104 2.115,-110.064 -11.027,-88.891 -8.283,-144.864 1.475,-30.088 -11.573,-51.484 -4.445,-82.088 21.575,-92.622 -17.054,-117.424 35.771,-140.454 11.488,-5.008 20.126,0.252 21.778,12.761 10.634998,80.522 84.199998,196.716 129.694998,332.943 2.593,7.763 4.689,15.853 9.482,22.566 7.272,10.185 6.999,23.733 14.813,33.305 13.079,16.021 19.018,46.20504 34.465,97.14304 1.412,4.655 5.314,9.908 2.674,14.266 -8.94,14.757 -5.619,32.67 -16.112,47.985 -48.312,70.511 -68.49,74.673 -94.513,101.956 -17.137,17.967 -35.974,33.998 -55.7,49.072 -34.886998,26.66 -17.625,39.177 -24.879998,74.365 -5.753,27.907 -14.689,53.733 -39.185,71.24 -18.059,12.907 -2.141,27.151 -9.25,53.751 -2.706,10.123 -7.631,18.672 -4.192,29.34 14.988,46.492 164.650998,22.165 215.708998,17.532 20.289,-1.84 20.851,-10.833 17.189,-27.565 -4.535,-20.72 -23.271,-16.116 -15.472,-32.765 2.948,-6.292 -0.078,-13.019 -0.392,-19.638 -4.399,-92.786 14.176,-107.174 74.161,-224.136 2.474,-4.823 5.699,-11.043 11.237,-10.072 12.137,2.128 35.286,200.285 -3.164,260.38 -13.732,21.463 -6.089,41.078 11.583,54.401 35.964,27.111 49.803,20.437 183.836,21.18 37.8,0.209 28.424,-10.403 60.955,-11.196 18.685,-0.455 7.74,-32.706 -1.291,-49.172 -39.771,-72.512 -117.948,-105.241 -116.384,-338.674 0.291,-43.433 48.968,-50.278 62.835,-63.083 53.217,-49.14 37.633,-83.53604 43.733,-114.55804 9.606,-48.85 9.107,-10.535 208.608,-42.642 17.307,-2.785 32.786,-12.121 50.495,-15.654 14.586,-2.91 29.938,-7.045 43.658,-13.89 7.409,-3.696 16.616,-1.392 22.133,-5.14 13.244,-8.999 28.766,-9.053 42.792,-14.372 3.807,-1.444 6.261,-5.714 11.012,-4.952 17.031,2.73 82.28905,-36.263 95.04005,-44.506 27.777,-17.957 12.765,71.556 21.759,96.04 3.962,10.785 -1.293,23.611 3.529,32.753 8.633,16.367 12.908,34.539 22.99,50.22004 16.223,25.234 4.709,55.76 6.923,63.697 11.807,42.317 5.311,84.259 -1.137,126.107 -15.097,97.978 -8.355,26.934 -10.769,164.533 0,0 -9.565,46.645 -10.017,70.181 -0.356,18.509 -10.119,59.14 -9.611,56.651 -9.092,23.644 -20.595,30.836 -24.364,46.842 -4.502,19.124 1.35,35.877 22.946,41.804 25.63,7.034 60.355,-5.51 106.483,0.391 37.12,4.748 43.185,6.936 43.302,-5.322 0.259,-24.957 2.319,-8.539 63.409,-8.875 19.437,-0.107 20.715,-9.23 18.243,-24.547 -1.085,-6.72 -4.786,-12.022 -12.647,-13.601 -19.15,-3.847 -26.551,-19.579 -37.259,-36.692 h 0.14 c 38.729,-170.701 34.776,-227.309 34.152,-224.821 14.193,-56.577 14.844,-116.252 25.398,-133.543 16.133,-26.43 20.068,-77.29 24.422,-85.313 10.401,-19.162 12.418,-76.17404 19.437,-87.96004 10.031,-16.842 27.937,-72.476 24.454,-129.487 0,-105.19 25.017,-88.359 35.258,-118.256 1.845,-5.386 3.206,-10.996 5.604,-16.122 6.335,-13.543 20.923,-16.978 32.578,-7.797 29.223,23.018 17.961,30.399 54.124,15.787 9.75,-3.94 15.561,-2.333 21.193,6.433 14.425,22.453 -5.968,26.931 65.581,24.15 15.679,-0.609 34.932,-19.95 35.386,-35.5 0.124,-4.249 6.072,-41.323 14.439,-34.008 7.141,6.243 17.599,9.447 19.92,20.711 3.527,17.119 0.964,28.107 7.907,28.298 5.672,0.156 8.613,-22.616 7.651,-30.912 -4.665,-40.248 -4.48,-44.636 2.507,-48.327 34.303,-18.121 19.915,19.368 105.055,5.838 16.939,-2.692 29.664,-16.221 87.051,17.689 5.36,3.167 10.451,6.442 17.061,1.933 24.801,-16.917 35.298,5.154 50.071,7.253 16.493,2.343 12.218,-6.117 14.57,-22.617 1.989,-13.949 11.203,-15.614 20.542,-6.975 33.051,30.575 44.988,32.432 87.412,44.491 39.553,11.243 64.687,37.079 77.723,75.66 8.248,24.413 23.109,46.592 24.667,73.264 16.123,27.068 21.603,58.753 39.156,85.557 23.395,35.723 37.113,76.309 50.34,116.69904 22.892,69.902 31.885,61.592 30.021,83.242 -3.476,40.389 15.24,37.766 18.521,60.899 2.01,14.171 9.587,25.902 16.051,38.138 11.367,21.516 -0.671,53.222 26.214,75.959 1.742,1.473 2.721,4.12 3.504,6.41 5.685,16.612 17.479,30.568 20.848,48.218 0.519,2.716 2.241,5.411 4.001,7.648 34.691,44.1 8.312,40.196 86.643,121.926 8.135,8.487 26.538,4.616 64.212,1.713 6.027,-0.464 11.67,-3.474 15.2,-9.4 3.942,-6.603 11.594,-12.659 7.386,-20.956 z"
     id="path2"
     inkscape:connector-curvature="0" /></svg>