<?xml version="1.0" encoding="UTF-8" ?>
<!DOCTYPE svg PUBLIC "-//W3C//DTD SVG 1.1//EN" "http://www.w3.org/Graphics/SVG/1.1/DTD/svg11.dtd">
<svg width="1255pt" height="1251pt" viewBox="0 0 1255 1251" version="1.1" xmlns="http://www.w3.org/2000/svg">
<path fill="#000000" stroke="#000000" stroke-width="0.09375" opacity="1.00" d=" M 720.69 0.00 L 731.40 0.00 C 750.96 3.50 763.81 20.62 782.31 26.80 C 771.28 31.56 755.78 26.65 748.99 39.06 C 737.79 52.21 741.05 70.80 735.07 86.02 C 728.09 107.09 708.54 122.40 686.42 124.51 C 657.37 125.39 627.31 130.47 599.15 120.85 C 602.86 137.26 608.34 153.54 615.38 168.77 C 623.82 171.53 633.07 167.70 641.73 168.32 C 638.90 172.82 633.46 173.51 628.66 174.34 C 635.63 178.22 643.46 179.35 651.28 180.16 C 648.02 181.38 644.84 182.67 641.68 184.07 C 637.09 182.61 632.51 181.22 627.93 179.80 C 629.87 181.91 631.89 183.95 633.85 186.04 C 620.03 182.95 610.73 169.31 595.45 170.32 C 599.98 169.94 604.52 169.68 609.08 169.39 C 606.61 151.97 598.77 135.72 590.23 120.49 C 585.81 123.74 576.42 126.17 579.65 133.50 C 583.63 149.83 587.92 166.15 591.21 182.62 C 599.91 186.60 610.29 185.67 618.26 191.72 C 612.37 191.35 606.70 189.73 601.18 187.76 C 601.22 188.48 601.30 189.91 601.34 190.62 C 607.00 193.13 613.08 194.79 618.31 198.21 C 609.02 198.98 601.43 191.72 592.90 189.06 C 594.64 193.24 597.26 196.96 599.83 200.67 C 589.88 200.28 589.33 187.13 584.28 180.65 C 579.19 177.77 572.89 178.70 567.30 177.79 C 567.25 176.52 567.22 175.24 567.21 173.96 C 573.02 174.90 578.95 175.96 584.84 175.03 C 584.98 154.61 561.89 129.62 580.21 112.98 C 569.56 107.54 559.72 100.21 548.82 95.47 C 534.89 97.36 520.80 99.26 506.72 97.00 C 510.23 85.71 524.54 84.57 531.61 79.02 C 519.90 75.62 506.94 71.31 495.55 65.51 C 464.41 67.59 433.11 63.41 403.25 54.78 C 396.35 51.73 403.16 44.18 406.64 41.24 C 404.94 35.29 404.01 24.46 414.01 27.19 C 450.18 33.84 486.31 41.25 522.55 47.72 C 565.32 49.73 605.34 30.49 647.66 27.70 C 674.51 26.42 695.74 7.64 720.69 0.00 Z" />
<path fill="#000000" stroke="#000000" stroke-width="0.09375" opacity="1.00" d=" M 1011.72 22.62 C 1053.76 16.91 1091.01 43.73 1132.61 42.31 C 1148.08 45.03 1162.71 52.27 1178.92 50.79 C 1178.46 44.45 1172.08 35.35 1179.54 31.17 C 1189.01 30.16 1192.04 45.62 1202.47 42.32 C 1216.16 34.81 1233.10 50.83 1240.36 31.70 C 1254.05 32.22 1244.79 47.78 1243.58 54.74 C 1249.21 71.44 1235.04 85.79 1220.83 91.91 C 1210.01 100.20 1199.56 86.79 1190.62 81.82 C 1194.01 93.90 1183.55 100.98 1175.71 107.98 C 1184.80 128.48 1207.67 136.05 1221.20 152.76 C 1228.82 162.88 1242.81 162.64 1251.61 170.90 C 1246.54 177.82 1237.21 173.65 1230.53 171.52 C 1205.95 156.57 1182.86 140.33 1160.25 122.74 C 1149.92 116.46 1137.76 119.82 1127.00 122.78 C 1129.60 135.72 1125.16 151.13 1134.50 162.51 C 1139.58 166.58 1147.12 168.96 1149.12 175.86 C 1139.55 177.02 1124.60 177.67 1122.30 165.67 C 1112.38 150.30 1110.32 131.72 1106.80 114.13 C 1085.75 113.89 1064.77 120.34 1043.98 115.07 C 1026.49 118.44 1009.93 134.77 991.15 128.93 C 984.23 140.15 999.59 148.18 1006.12 154.96 C 1011.73 161.09 1029.71 155.70 1023.82 168.78 C 1003.72 177.40 989.50 157.21 976.09 145.78 C 969.68 134.17 977.89 121.14 987.93 114.69 C 982.41 111.07 973.33 115.80 966.93 117.88 C 946.67 126.83 923.95 122.53 902.63 126.62 C 899.95 135.18 894.03 142.37 891.35 150.83 C 893.47 155.64 904.28 156.55 900.45 164.17 C 895.54 176.04 882.91 165.41 878.75 158.53 C 876.38 142.51 881.79 125.55 892.49 113.39 C 916.16 115.58 928.14 93.62 937.94 75.94 C 910.91 84.89 882.39 93.61 853.60 89.48 C 823.64 84.35 794.02 77.65 764.45 70.69 C 783.32 62.53 804.70 65.97 823.91 71.13 C 853.79 78.33 885.39 76.56 914.32 66.31 C 947.16 52.64 975.01 26.05 1011.72 22.62 Z" />
<path fill="#000000" stroke="#000000" stroke-width="0.09375" opacity="1.00" d=" M 25.16 133.11 C 84.80 93.41 162.78 65.27 232.61 94.58 C 251.19 96.53 268.40 105.57 282.60 117.39 C 254.29 125.30 224.10 116.38 195.91 125.01 C 172.57 131.82 147.25 136.17 127.56 151.34 C 145.83 156.90 164.84 157.92 183.77 156.19 C 203.68 154.47 217.68 174.36 237.73 171.23 C 254.84 174.61 261.50 155.88 275.01 150.03 C 291.70 139.45 312.71 144.30 329.87 134.75 C 346.89 125.77 359.09 143.41 370.99 152.07 C 397.93 162.63 440.26 142.17 454.42 177.19 C 444.45 180.81 433.85 182.56 424.23 187.20 C 396.02 201.48 362.77 178.07 335.31 193.70 C 351.86 192.52 368.73 192.03 384.66 197.53 C 404.88 203.10 424.43 191.58 443.98 190.87 C 444.05 195.21 446.16 200.61 444.08 204.68 C 424.67 215.83 399.87 207.01 380.85 218.99 C 370.60 225.27 356.65 218.33 347.77 227.90 C 341.94 235.47 333.68 240.66 327.65 247.99 C 335.97 249.27 344.14 244.04 352.59 247.40 C 348.67 250.04 343.80 250.86 339.33 252.30 C 342.07 254.00 344.80 255.75 347.50 257.54 C 316.18 255.09 289.52 275.36 258.43 274.79 C 266.66 291.59 286.46 297.47 299.87 309.30 C 291.79 309.87 289.74 313.34 295.86 320.22 C 290.57 316.57 285.24 312.98 279.67 309.79 C 279.18 315.61 282.23 320.80 283.79 326.23 C 276.93 323.47 270.60 319.63 264.25 315.91 C 261.80 321.81 258.44 327.25 254.99 332.62 C 248.99 327.67 255.59 318.34 251.11 312.90 C 244.24 311.19 237.79 316.21 231.33 318.30 C 231.29 317.60 231.22 316.18 231.18 315.48 C 234.00 312.80 237.34 310.46 239.26 306.98 C 224.57 297.56 206.26 295.36 189.40 291.89 C 187.51 288.06 186.09 284.04 184.61 280.06 C 143.03 290.54 102.46 274.18 64.00 260.26 C 64.10 279.25 85.78 289.81 87.49 309.49 C 82.55 307.49 77.68 305.31 72.86 303.05 C 71.92 307.80 70.99 312.55 70.01 317.29 C 67.77 314.08 65.56 310.83 63.30 307.64 C 62.48 311.86 61.15 315.97 60.22 320.17 C 56.84 316.75 53.12 313.71 49.30 310.81 C 49.13 327.36 41.86 317.79 39.42 309.13 C 36.75 311.19 35.32 314.29 34.37 317.44 C 33.19 317.55 32.01 317.67 30.83 317.80 C 31.54 308.32 34.65 299.24 35.92 289.86 C 36.55 277.94 24.14 271.87 20.11 261.79 C 14.83 248.62 16.07 234.04 13.89 220.30 C 10.32 210.80 3.38 202.97 0.00 193.35 L 0.00 185.58 C 5.41 167.23 9.46 145.75 25.16 133.11 Z" />
<path fill="#000000" stroke="#000000" stroke-width="0.09375" opacity="1.00" d=" M 1211.25 251.48 C 1217.63 261.93 1227.41 261.20 1232.55 250.36 C 1231.67 280.62 1247.11 307.77 1255.00 336.24 L 1255.00 337.05 C 1251.27 341.14 1247.43 345.13 1243.64 349.16 C 1222.25 341.68 1214.72 316.13 1196.51 304.25 C 1184.17 303.89 1181.89 319.25 1178.36 328.32 C 1167.50 354.76 1182.01 384.01 1171.65 410.50 C 1166.74 422.53 1154.96 429.96 1149.91 441.92 C 1140.67 459.58 1143.74 480.22 1142.46 499.31 C 1141.75 512.14 1135.81 524.70 1138.91 537.63 C 1142.12 545.28 1147.81 551.89 1149.63 560.13 C 1142.65 559.85 1136.64 556.24 1130.14 554.23 C 1117.00 528.93 1128.63 499.89 1118.76 473.86 C 1103.60 490.62 1090.24 515.24 1065.32 517.21 C 1066.67 510.21 1068.82 503.41 1070.78 496.58 C 1074.96 495.40 1079.25 494.67 1083.60 494.49 C 1095.52 481.66 1110.80 470.27 1114.59 452.15 C 1108.53 443.70 1099.27 436.89 1088.55 436.45 C 1061.71 432.87 1034.63 429.82 1007.89 426.65 C 995.10 436.63 986.01 451.33 970.73 458.47 C 972.18 483.64 1003.59 497.67 1000.96 523.78 C 994.87 531.89 991.74 542.65 983.92 549.26 C 980.66 543.67 979.35 537.20 977.71 531.03 C 976.28 525.35 985.87 523.63 982.50 517.35 C 980.01 493.37 958.05 478.50 944.96 460.21 C 951.14 455.20 956.99 449.82 963.02 444.62 C 962.16 440.10 961.12 435.60 960.16 431.13 C 950.17 434.20 938.46 435.84 932.31 445.39 C 910.28 468.67 910.66 502.45 904.32 531.91 C 907.70 542.74 920.86 547.55 927.00 556.95 C 917.41 555.46 906.23 555.70 898.50 549.45 C 884.18 526.14 897.45 498.16 894.90 472.87 C 890.44 453.79 908.48 442.77 917.44 429.09 C 919.33 415.04 914.28 401.08 910.40 387.72 C 900.28 401.78 890.08 417.70 873.55 424.76 C 866.83 427.84 860.33 423.26 855.65 418.77 C 889.20 399.98 900.62 359.93 929.41 336.40 C 952.38 324.24 979.92 322.20 1005.32 325.64 C 1032.58 332.52 1063.94 341.95 1089.98 325.90 C 1104.81 320.42 1107.71 303.19 1120.15 295.10 C 1139.89 281.33 1161.25 267.62 1185.93 265.88 C 1195.80 264.23 1214.11 267.12 1211.25 251.48 Z" />
<path fill="#000000" stroke="#000000" stroke-width="0.09375" opacity="1.00" d=" M 617.47 284.45 C 634.74 282.77 648.63 269.79 666.27 270.14 C 687.59 268.04 703.99 286.46 725.28 284.55 C 767.42 293.43 781.88 338.88 795.48 374.42 C 798.49 387.01 814.35 382.45 823.46 386.76 C 817.27 391.96 808.73 392.57 801.13 394.22 C 811.53 441.53 816.08 489.89 818.87 538.07 C 814.94 538.63 811.03 539.40 807.12 540.05 C 810.49 512.65 801.24 485.96 794.08 459.92 C 785.71 434.82 782.45 406.83 765.22 385.75 C 753.41 379.20 740.15 374.97 727.19 371.00 C 727.01 375.20 726.92 379.42 726.78 383.63 C 713.00 390.63 694.25 379.11 682.58 388.86 C 672.02 432.67 710.88 467.96 714.77 510.07 C 718.93 519.85 730.96 523.72 735.31 533.65 C 724.81 547.77 706.33 544.01 691.16 542.70 C 692.46 514.25 675.04 489.52 658.79 467.88 C 652.17 483.75 647.67 500.44 639.53 515.67 C 633.95 526.43 648.48 532.88 649.79 541.79 C 635.30 544.62 617.25 547.47 603.74 539.13 C 616.10 525.53 615.35 506.15 619.27 489.29 C 625.63 465.34 614.88 440.93 621.77 416.86 C 591.15 415.33 564.95 439.40 533.68 432.22 C 526.88 437.77 522.47 445.99 512.73 447.54 C 500.67 475.56 509.94 511.91 530.08 533.88 C 522.45 548.51 499.09 534.63 486.15 537.67 C 488.86 516.38 480.04 496.49 474.28 476.53 C 467.80 494.73 454.86 512.08 457.73 532.31 C 446.73 536.22 434.20 531.70 422.96 529.69 C 438.88 499.39 454.76 467.79 456.94 432.94 C 459.67 419.75 459.25 405.34 451.77 393.68 C 445.65 424.24 447.90 457.18 433.86 485.73 C 436.23 457.13 447.91 429.79 445.51 400.49 C 443.46 358.00 455.45 305.23 498.21 286.23 C 537.05 269.31 577.87 294.80 617.47 284.45 Z" />
<path fill="#000000" stroke="#000000" stroke-width="0.09375" opacity="1.00" d=" M 30.66 402.62 C 40.79 379.57 81.59 384.95 78.85 412.10 C 71.89 410.87 74.65 400.10 68.07 397.92 C 59.68 391.47 43.96 391.91 40.00 403.15 C 28.71 427.10 41.74 457.52 63.99 469.80 C 73.93 464.89 83.12 456.70 95.13 458.04 C 137.97 459.57 182.96 470.90 224.44 455.43 C 247.76 448.08 262.39 425.96 285.48 418.41 C 298.53 414.39 311.02 422.90 321.58 429.43 C 329.84 434.50 342.86 430.04 348.83 438.60 C 349.28 450.89 335.26 456.07 325.22 457.61 C 316.13 460.98 304.65 451.32 297.75 460.82 C 284.97 475.16 263.55 487.69 267.03 510.07 C 268.02 526.59 258.40 542.24 262.18 558.74 C 265.16 577.99 265.95 597.60 270.34 616.62 C 272.92 627.64 286.93 628.89 291.67 638.51 C 282.68 645.54 267.41 645.30 260.73 635.14 C 251.48 614.63 250.02 590.42 237.24 571.68 C 233.27 589.42 229.75 607.47 228.32 625.56 C 228.41 637.91 251.30 636.71 245.77 649.65 C 233.24 654.68 218.06 648.38 215.30 634.67 C 208.17 609.41 212.82 582.79 208.86 557.08 C 179.16 553.22 152.64 538.65 125.10 527.94 C 118.13 549.84 108.75 570.99 103.07 593.28 C 97.12 611.30 109.59 627.40 125.02 634.96 C 131.39 645.94 103.98 643.68 99.60 636.31 C 92.41 621.83 77.81 605.36 86.23 588.29 C 88.66 576.23 90.56 563.87 89.67 551.54 C 73.22 577.39 48.58 599.25 40.65 629.67 C 35.13 642.13 59.85 639.05 53.77 650.57 C 46.29 661.74 32.54 650.67 27.53 643.05 C 27.69 627.37 30.31 611.65 31.75 596.00 C 37.40 582.45 53.73 572.70 50.93 556.34 C 47.01 530.23 40.21 501.94 51.05 477.00 C 30.31 459.59 21.49 427.81 30.66 402.62 Z" />
<path fill="#000000" stroke="#000000" stroke-width="0.09375" opacity="1.00" d=" M 663.67 593.72 C 674.88 585.14 691.57 583.08 704.54 588.49 C 716.62 598.21 727.17 609.93 737.40 621.59 C 746.27 631.34 738.46 643.91 737.85 654.94 C 749.84 658.35 755.38 668.31 758.35 679.57 C 774.90 692.03 797.67 706.31 794.58 730.42 C 791.81 750.52 768.32 752.00 752.47 752.55 C 742.19 772.82 727.81 792.26 720.97 814.76 C 750.01 816.20 749.01 849.64 743.07 870.07 C 736.17 886.11 741.48 905.29 731.01 920.00 C 725.24 929.64 714.12 933.19 705.50 939.54 C 711.00 942.41 716.82 947.06 723.47 944.70 C 733.00 943.16 742.56 955.86 735.88 963.92 C 726.09 969.46 715.09 962.73 706.00 958.95 C 706.87 962.24 707.57 965.59 707.96 968.98 C 692.84 966.71 683.16 953.52 670.86 945.79 C 671.67 925.65 684.78 909.32 692.08 891.27 C 682.14 884.87 676.73 868.25 662.72 871.29 C 658.32 888.57 643.09 901.00 640.41 918.79 C 639.68 929.13 639.41 939.66 640.86 949.97 C 644.53 962.58 663.18 964.37 665.13 977.69 C 661.94 977.07 658.73 976.42 655.48 976.29 C 654.53 980.91 654.07 985.75 652.02 990.06 C 627.23 1001.90 603.13 967.60 612.36 946.62 C 595.82 919.49 600.75 886.52 589.24 857.78 C 593.71 821.19 620.00 791.42 628.95 756.06 C 613.26 751.11 591.41 760.70 577.10 750.62 C 570.83 718.15 589.18 686.43 605.32 659.40 C 610.64 645.22 629.59 651.43 636.37 639.29 C 645.38 624.06 653.54 608.23 663.67 593.72 Z" />
<path fill="#000000" stroke="#000000" stroke-width="0.09375" opacity="1.00" d=" M 1141.76 592.96 C 1162.35 577.73 1189.80 595.70 1201.36 613.95 C 1206.80 631.91 1182.22 627.94 1172.66 632.64 C 1160.96 672.89 1156.27 715.52 1142.28 755.27 C 1136.98 772.20 1114.68 770.57 1107.60 785.72 C 1099.62 804.35 1109.26 826.14 1099.05 844.09 C 1091.79 858.95 1096.91 875.98 1102.39 890.51 C 1104.99 896.16 1115.83 899.54 1110.22 906.98 C 1103.81 903.73 1095.32 902.88 1091.62 910.36 C 1087.15 906.98 1082.79 903.47 1077.91 900.73 C 1072.78 861.67 1076.09 821.96 1071.93 782.79 C 1050.48 789.87 1028.31 783.09 1009.74 771.87 C 1003.08 792.32 994.03 811.99 988.63 832.83 C 986.04 860.53 1000.06 887.67 1018.25 907.73 C 1014.29 907.41 1010.36 906.96 1006.88 904.98 C 1006.51 906.67 1006.12 908.36 1005.76 910.07 C 991.05 889.59 982.17 865.90 971.46 843.41 C 968.32 866.15 972.50 888.48 978.84 910.15 C 975.80 909.34 972.83 908.27 969.87 907.34 C 969.87 908.04 969.86 909.43 969.85 910.12 C 967.62 909.89 964.51 910.20 964.61 907.07 C 963.57 882.82 958.73 858.94 953.68 835.27 C 949.61 818.82 972.08 803.99 959.43 788.59 C 945.32 769.85 925.91 747.98 935.44 722.50 C 941.00 699.07 967.29 691.18 988.48 690.39 C 1031.89 689.05 1075.02 696.48 1118.39 696.94 C 1125.56 694.78 1126.41 685.27 1128.19 679.17 C 1132.58 655.89 1135.39 632.19 1135.64 608.49 C 1128.50 606.75 1119.82 604.44 1115.05 599.09 C 1120.06 589.17 1134.19 598.26 1141.76 592.96 Z" />
<path fill="#000000" stroke="#000000" stroke-width="0.09375" opacity="1.00" d=" M 438.02 697.00 C 456.50 688.42 480.02 687.17 497.77 698.21 C 507.73 706.36 503.73 722.68 493.90 728.97 C 485.39 735.16 475.08 738.41 466.72 744.74 C 456.49 760.28 453.94 780.04 441.07 794.07 C 425.77 811.25 400.65 821.59 394.88 845.85 C 405.15 851.94 422.13 855.95 423.08 870.32 C 409.40 883.12 392.08 869.90 379.03 863.02 C 369.56 860.02 369.58 844.30 357.71 847.18 C 340.49 847.53 322.86 843.53 305.90 847.56 C 305.67 855.04 314.95 855.50 319.08 860.06 C 325.16 862.75 324.09 874.09 317.04 874.51 C 300.44 879.46 290.65 859.42 274.34 861.68 C 260.77 861.52 247.34 855.58 240.95 843.15 C 233.73 829.73 216.02 832.44 204.83 838.85 C 164.96 859.35 119.97 865.55 76.18 872.20 C 62.44 872.85 46.50 878.96 34.76 869.12 C 69.89 854.83 108.52 848.70 140.70 827.69 C 157.39 817.22 175.39 808.48 189.91 794.91 C 213.02 774.68 233.42 748.67 263.37 738.37 C 306.00 726.04 351.64 747.77 393.95 731.94 C 411.97 724.94 421.93 706.74 438.02 697.00 Z" />
<path fill="#000000" stroke="#000000" stroke-width="0.09375" opacity="1.00" d=" M 1174.67 831.43 C 1179.71 826.18 1185.05 832.25 1190.03 833.86 C 1200.17 829.19 1210.66 834.59 1221.10 834.93 C 1228.44 835.52 1236.71 835.53 1242.27 841.18 C 1240.88 842.19 1239.48 843.17 1238.09 844.17 C 1238.83 844.84 1239.58 845.54 1240.34 846.24 C 1227.43 860.20 1201.16 852.69 1195.00 874.08 C 1195.07 906.79 1193.44 939.68 1198.82 972.07 C 1200.06 989.88 1180.43 1000.32 1181.01 1017.69 C 1183.34 1025.53 1190.39 1031.73 1190.53 1040.39 C 1191.61 1055.31 1179.11 1066.29 1177.78 1080.76 C 1168.70 1114.84 1168.80 1150.11 1166.14 1185.01 C 1166.21 1199.91 1173.29 1213.74 1181.70 1225.61 C 1183.80 1234.89 1171.48 1231.36 1166.57 1229.47 C 1166.14 1208.78 1153.88 1190.22 1161.12 1168.89 C 1148.75 1167.21 1158.04 1184.84 1154.69 1191.51 C 1150.50 1201.97 1152.50 1214.34 1161.48 1221.87 C 1161.56 1223.41 1161.72 1226.48 1161.80 1228.01 C 1158.25 1228.03 1154.81 1227.52 1151.47 1226.42 C 1138.99 1198.60 1150.81 1168.10 1149.01 1139.04 C 1148.48 1120.55 1153.53 1102.49 1153.74 1084.02 C 1135.10 1095.35 1112.43 1097.35 1091.13 1095.16 C 1083.96 1116.21 1065.29 1130.08 1055.04 1149.18 C 1051.94 1178.58 1051.12 1210.98 1071.32 1234.83 C 1064.71 1238.48 1056.59 1241.71 1049.27 1238.14 C 1049.95 1227.11 1035.91 1220.12 1039.97 1207.94 C 1044.24 1182.01 1032.59 1155.19 1041.51 1130.37 C 1042.43 1116.65 1038.29 1103.10 1035.34 1089.83 C 1031.22 1106.65 1023.98 1123.55 1027.74 1141.14 C 1018.46 1139.84 1011.29 1128.23 1017.94 1120.06 C 1033.64 1098.53 1023.20 1069.61 1035.99 1047.00 C 1046.32 1023.07 1071.54 1012.32 1095.87 1008.88 C 1111.07 1004.71 1121.65 991.90 1132.02 980.99 C 1146.06 973.87 1157.01 960.66 1160.47 945.24 C 1160.28 913.57 1166.22 882.13 1172.74 851.34 C 1171.74 847.73 1167.76 846.59 1164.84 844.99 C 1169.36 840.11 1187.72 838.95 1174.67 831.43 Z" />
<path fill="#000000" stroke="#000000" stroke-width="0.09375" opacity="1.00" d=" M 847.24 943.13 C 853.94 937.01 863.98 918.67 873.79 928.16 C 871.48 936.33 865.00 942.58 860.11 949.26 C 865.92 961.12 876.05 970.58 880.96 982.86 C 876.99 998.17 854.14 983.17 848.07 998.28 C 843.89 1012.82 836.08 1028.04 840.22 1043.37 C 854.51 1055.02 867.18 1071.63 866.82 1091.01 C 866.57 1140.60 824.44 1174.61 812.84 1220.91 C 837.77 1226.49 864.08 1227.12 886.14 1242.19 C 873.74 1246.97 860.65 1249.43 847.51 1251.00 L 820.68 1251.00 C 804.69 1248.49 788.71 1245.79 772.96 1242.03 C 777.24 1232.47 782.05 1223.16 786.88 1213.87 C 752.46 1229.43 716.17 1245.84 677.44 1242.71 C 639.61 1240.06 601.81 1236.82 563.97 1234.27 C 557.73 1234.91 553.89 1230.99 551.24 1226.03 C 556.88 1220.28 565.58 1222.30 572.79 1222.08 C 613.11 1224.67 653.73 1225.43 694.04 1222.04 C 718.95 1220.60 740.49 1202.71 750.42 1180.47 C 757.74 1159.60 747.66 1136.05 756.79 1115.61 C 764.91 1082.42 794.25 1060.45 807.92 1029.90 C 819.67 1001.43 837.43 970.85 826.44 939.55 C 828.74 923.82 845.48 931.53 847.24 943.13 Z" />
<path fill="#000000" stroke="#000000" stroke-width="0.09375" opacity="1.00" d=" M 93.02 968.01 C 101.49 954.00 113.24 935.65 132.46 939.09 C 152.48 943.72 172.25 953.51 186.11 968.88 C 170.36 971.97 154.85 976.17 140.06 982.43 C 140.82 988.32 137.61 997.08 144.06 1000.96 C 167.89 1020.16 188.21 1045.97 194.53 1076.48 C 201.90 1114.05 190.57 1151.76 179.47 1187.37 C 178.87 1190.61 175.99 1192.19 173.18 1193.29 C 172.22 1184.55 181.05 1173.29 173.75 1166.03 C 164.61 1176.08 161.50 1194.98 147.13 1201.11 C 148.46 1195.18 151.48 1189.82 152.95 1183.94 C 145.25 1195.19 135.54 1206.52 120.35 1205.33 C 119.74 1211.38 119.16 1217.50 119.15 1223.62 C 123.98 1224.41 127.15 1227.91 125.61 1233.25 C 123.41 1231.47 121.24 1229.70 119.06 1227.93 C 116.98 1231.49 114.86 1235.09 112.19 1238.26 C 113.02 1234.05 113.84 1229.82 114.76 1225.65 C 111.56 1228.22 108.63 1231.26 104.86 1233.04 C 108.59 1223.44 120.60 1218.88 116.12 1205.49 C 110.40 1205.37 104.67 1205.06 99.02 1204.10 C 95.25 1210.66 96.44 1217.50 100.89 1223.23 C 101.38 1229.00 97.52 1228.26 97.44 1222.87 C 93.74 1224.51 91.62 1228.29 87.97 1230.06 C 88.79 1226.63 89.93 1223.29 91.03 1219.96 C 87.21 1221.63 83.09 1223.74 78.89 1222.00 C 86.04 1217.94 96.28 1215.74 94.99 1205.15 C 84.56 1202.08 74.03 1197.57 68.21 1187.76 C 39.72 1148.24 32.71 1096.77 35.87 1049.32 C 47.04 1017.40 76.02 996.52 93.02 968.01 Z" />
<path fill="#000000" stroke="#000000" stroke-width="0.09375" opacity="1.00" d=" M 477.00 939.95 C 492.96 943.09 508.23 952.09 516.97 966.02 C 523.60 975.39 519.71 988.42 526.18 997.78 C 537.88 1008.94 552.99 1015.62 565.97 1025.10 C 569.68 1027.64 566.89 1032.16 565.26 1035.09 C 566.19 1035.70 567.12 1036.34 568.07 1036.98 C 551.71 1041.11 531.25 1028.04 518.93 1044.11 C 498.87 1047.56 502.10 1072.29 491.31 1085.29 C 483.05 1102.93 457.82 1111.54 460.98 1134.07 C 463.28 1160.23 453.22 1196.78 478.76 1214.75 C 474.50 1215.02 470.38 1213.98 466.32 1212.90 C 465.39 1209.24 463.56 1205.77 459.33 1205.66 C 455.03 1188.25 454.96 1170.15 450.60 1152.73 C 447.89 1174.09 428.73 1201.90 450.16 1218.96 C 445.51 1218.54 440.87 1218.13 436.24 1217.62 C 436.42 1215.49 436.66 1213.38 436.89 1211.28 C 435.57 1210.08 434.30 1208.87 432.99 1207.70 C 439.25 1176.77 442.86 1145.65 439.90 1113.98 C 413.59 1113.60 386.29 1122.64 361.10 1110.97 C 356.65 1120.90 348.61 1128.06 341.20 1135.50 C 335.50 1162.30 349.29 1192.75 371.94 1208.31 C 368.71 1209.16 365.50 1210.09 362.26 1210.89 C 360.48 1201.15 348.64 1200.31 346.34 1190.62 C 341.28 1171.58 322.05 1155.90 329.01 1135.05 C 318.72 1141.74 302.72 1148.85 305.91 1164.10 C 306.55 1179.74 301.67 1204.51 321.27 1211.00 C 325.34 1218.15 315.54 1218.55 311.39 1216.78 C 296.25 1197.99 300.67 1173.03 297.65 1150.43 C 297.20 1134.79 321.54 1130.50 319.69 1114.13 C 319.03 1104.56 316.82 1095.02 312.22 1086.55 C 307.82 1103.13 305.15 1120.62 295.05 1135.06 C 299.84 1114.00 305.38 1093.11 307.53 1071.55 C 312.31 1039.53 352.36 1029.56 379.18 1037.80 C 406.26 1045.31 435.40 1036.95 462.31 1045.74 C 467.21 1047.60 472.72 1050.08 477.82 1047.07 C 489.34 1040.50 488.17 1024.71 498.22 1016.91 C 500.62 1008.62 490.29 1003.65 489.94 995.51 C 491.29 993.86 493.98 990.55 495.33 988.90 C 503.63 992.32 505.46 1007.57 515.88 1004.08 C 514.17 991.08 510.57 978.39 507.48 965.67 C 502.51 952.09 488.88 946.10 477.00 939.95 Z" />
<path fill="#000000" stroke="#000000" stroke-width="0.09375" opacity="1.00" d=" M 104.86 1233.04 C 104.38 1233.57 104.38 1233.57 104.86 1233.04 Z" />
</svg>
