<?xml version="1.0" encoding="UTF-8" standalone="no"?>
<!-- Created with Inkscape (http://www.inkscape.org/) -->

<svg xmlns:dc="http://purl.org/dc/elements/1.1/" xmlns:cc="http://creativecommons.org/ns#" xmlns:rdf="http://www.w3.org/1999/02/22-rdf-syntax-ns#" xmlns:svg="http://www.w3.org/2000/svg" xmlns="http://www.w3.org/2000/svg" xmlns:xlink="http://www.w3.org/1999/xlink" version="1.1" width="586.54572" height="892.45026" id="svg2">
  <metadata id="metadata8">
    <rdf:RDF>
      <cc:Work rdf:about="">
        <dc:format>image/svg+xml</dc:format>
        <dc:type rdf:resource="http://purl.org/dc/dcmitype/StillImage" />
        <dc:title></dc:title>
      </cc:Work>
    </rdf:RDF>
  </metadata>
  <defs id="defs6" />
  <text x="9.4492188" y="36.085938" id="text2987" xml:space="preserve" style="font-size:36px;font-style:normal;font-variant:normal;font-weight:bold;font-stretch:normal;text-align:start;line-height:120.00000477%;letter-spacing:0px;word-spacing:0px;text-anchor:start;fill:#000000;fill-opacity:1;stroke:none;font-family:Liberation Sans;-inkscape-font-specification:Liberation Sans Bold"><tspan x="9.4492188" y="36.085938" id="tspan2989">Website User Survey</tspan></text>
  <text x="9.4492188" y="139.94949" id="text2991" xml:space="preserve" style="font-size:24px;font-style:normal;font-variant:normal;font-weight:normal;font-stretch:normal;text-align:start;line-height:120.00000477%;letter-spacing:0px;word-spacing:0px;text-anchor:start;fill:#000000;fill-opacity:1;stroke:none;font-family:Liberation Sans;-inkscape-font-specification:Liberation Sans"><tspan x="9.4492188" y="139.94949" id="tspan2993">1. The website has a user friendly interface.</tspan></text>
  <text x="9.4492188" y="305.94949" id="text2995" xml:space="preserve" style="font-size:24px;font-style:normal;font-variant:normal;font-weight:normal;font-stretch:normal;text-align:start;line-height:120.00000477%;letter-spacing:0px;word-spacing:0px;text-anchor:start;fill:#000000;fill-opacity:1;stroke:none;font-family:Liberation Sans;-inkscape-font-specification:Liberation Sans"><tspan x="9.4492188" y="305.94949" id="tspan2997">2. The website is easy to navigate.</tspan></text>
  <text x="9.4492188" y="471.94949" id="text2999" xml:space="preserve" style="font-size:24px;font-style:normal;font-variant:normal;font-weight:normal;font-stretch:normal;text-align:start;line-height:120.00000477%;letter-spacing:0px;word-spacing:0px;text-anchor:start;fill:#000000;fill-opacity:1;stroke:none;font-family:Liberation Sans;-inkscape-font-specification:Liberation Sans"><tspan x="9.4492188" y="471.94949" id="tspan3001">3. The website's pages generally have good images.</tspan></text>
  <text x="9.4492188" y="637.94946" id="text3003" xml:space="preserve" style="font-size:24px;font-style:normal;font-variant:normal;font-weight:normal;font-stretch:normal;text-align:start;line-height:120.00000477%;letter-spacing:0px;word-spacing:0px;text-anchor:start;fill:#000000;fill-opacity:1;stroke:none;font-family:Liberation Sans;-inkscape-font-specification:Liberation Sans"><tspan x="9.4492188" y="637.94946" id="tspan3005">4. The website allows users to upload pictures easily.</tspan></text>
  <text x="9.4492188" y="803.94946" id="text3007" xml:space="preserve" style="font-size:24px;font-style:normal;font-variant:normal;font-weight:normal;font-stretch:normal;text-align:start;line-height:120.00000477%;letter-spacing:0px;word-spacing:0px;text-anchor:start;fill:#000000;fill-opacity:1;stroke:none;font-family:Liberation Sans;-inkscape-font-specification:Liberation Sans"><tspan x="9.4492188" y="803.94946" id="tspan3009">5. The website has a pleasing color scheme.</tspan></text>
  <g transform="translate(-56.664017,441.92996)" id="g3846">
    <path d="M 215,-273.03125 103,-273 l 112,-0.0312 z m 127,0 -112,0.0312 112,-0.0312 z m 127,0 -112,0.0312 112,-0.0312 z m 127,0 -112,0.0312 112,-0.0312 z M 611,-273 c 0,4.14214 -3.35786,7.5 -7.5,7.5 -4.14214,0 -7.5,-3.35786 -7.5,-7.5 0,-4.14214 3.35786,-7.5 7.5,-7.5 4.14214,0 7.5,3.35786 7.5,7.5 z m -127,0 c 0,4.14214 -3.35786,7.5 -7.5,7.5 -4.14214,0 -7.5,-3.35786 -7.5,-7.5 0,-4.14214 3.35786,-7.5 7.5,-7.5 4.14214,0 7.5,3.35786 7.5,7.5 z m -127,0 c 0,4.14214 -3.35786,7.5 -7.5,7.5 -4.14214,0 -7.5,-3.35786 -7.5,-7.5 0,-4.14214 3.35786,-7.5 7.5,-7.5 4.14214,0 7.5,3.35786 7.5,7.5 z m -127,0 c 0,4.14214 -3.35786,7.5 -7.5,7.5 -4.14214,0 -7.5,-3.35786 -7.5,-7.5 0,-4.14214 3.35786,-7.5 7.5,-7.5 4.14214,0 7.5,3.35786 7.5,7.5 z m -127,0 c 0,4.14214 -3.357864,7.5 -7.5,7.5 -4.142136,0 -7.5,-3.35786 -7.5,-7.5 0,-4.14214 3.357864,-7.5 7.5,-7.5 4.142136,0 7.5,3.35786 7.5,7.5 z" id="path3793" style="fill:none;stroke:#000000;stroke-width:2;stroke-linecap:butt;stroke-linejoin:miter;stroke-miterlimit:4;stroke-opacity:1;stroke-dasharray:none" />
    <text x="95.209686" y="-246" id="text3810" xml:space="preserve" style="font-size:16px;font-style:normal;font-variant:normal;font-weight:normal;font-stretch:normal;text-align:center;line-height:120.00000477%;letter-spacing:0px;word-spacing:0px;text-anchor:middle;fill:#000000;fill-opacity:1;stroke:none;font-family:Liberation Sans;-inkscape-font-specification:Liberation Sans"><tspan x="95.209686" y="-246" id="tspan3812">strongly</tspan><tspan x="95.209686" y="-226.8" id="tspan3814">agree</tspan></text>
    <text x="222.20969" y="-246" id="text3816" xml:space="preserve" style="font-size:16px;font-style:normal;font-variant:normal;font-weight:normal;font-stretch:normal;text-align:center;line-height:120.00000477%;letter-spacing:0px;word-spacing:0px;text-anchor:middle;fill:#000000;fill-opacity:1;stroke:none;font-family:Liberation Sans;-inkscape-font-specification:Liberation Sans"><tspan x="222.20969" y="-246" id="tspan3820">agree</tspan></text>
    <text x="349.20969" y="-246" id="text3822" xml:space="preserve" style="font-size:16px;font-style:normal;font-variant:normal;font-weight:normal;font-stretch:normal;text-align:center;line-height:120.00000477%;letter-spacing:0px;word-spacing:0px;text-anchor:middle;fill:#000000;fill-opacity:1;stroke:none;font-family:Liberation Sans;-inkscape-font-specification:Liberation Sans"><tspan x="349.20969" y="-246" id="tspan3826">neutral</tspan></text>
    <text x="476.20969" y="-246" id="text3828" xml:space="preserve" style="font-size:16px;font-style:normal;font-variant:normal;font-weight:normal;font-stretch:normal;text-align:center;line-height:120.00000477%;letter-spacing:0px;word-spacing:0px;text-anchor:middle;fill:#000000;fill-opacity:1;stroke:none;font-family:Liberation Sans;-inkscape-font-specification:Liberation Sans"><tspan x="476.20969" y="-246" id="tspan3832">disagree</tspan></text>
    <text x="603.20972" y="-246" id="text3834" xml:space="preserve" style="font-size:16px;font-style:normal;font-variant:normal;font-weight:normal;font-stretch:normal;text-align:center;line-height:120.00000477%;letter-spacing:0px;word-spacing:0px;text-anchor:middle;fill:#000000;fill-opacity:1;stroke:none;font-family:Liberation Sans;-inkscape-font-specification:Liberation Sans"><tspan x="603.20972" y="-246" id="tspan3836">strongly</tspan><tspan x="603.20972" y="-226.8" id="tspan3838">disagree</tspan></text>
  </g>
  <use transform="translate(2.7636719e-7,332)" id="use3863" x="0" y="0" width="360" height="504" xlink:href="#g3846" />
  <use transform="translate(2.7636719e-7,498)" id="use3865" x="0" y="0" width="360" height="504" xlink:href="#g3846" />
  <use transform="translate(2.7636719e-7,664)" id="use3867" x="0" y="0" width="360" height="504" xlink:href="#g3846" />
  <use transform="translate(2.7636719e-7,166)" id="use3861" x="0" y="0" width="360" height="504" xlink:href="#g3846" />
  <g transform="translate(-56.664017,441.92996)" id="g3893">
    <path d="m 214.52133,-263.22835 c 7.85707,-11.74666 12.24448,-14.07569 17.31537,-18.25985" id="path3871" style="fill:none;stroke:#ff0000;stroke-width:3;stroke-linecap:butt;stroke-linejoin:miter;stroke-miterlimit:4;stroke-opacity:1;stroke-dasharray:none" />
    <path d="m 213.89168,-281.48819 c 7.04111,4.33753 12.55371,11.34998 17.94502,18.57467" id="path3873" style="fill:none;stroke:#ff0000;stroke-width:3;stroke-linecap:butt;stroke-linejoin:miter;stroke-miterlimit:4;stroke-opacity:1;stroke-dasharray:none" />
  </g>
  <use transform="translate(-127,166)" id="use3897" x="0" y="0" width="360" height="504" xlink:href="#g3893" />
  <use transform="translate(254,332)" id="use3899" x="0" y="0" width="360" height="504" xlink:href="#g3893" />
  <use transform="translate(-127,498)" id="use3901" x="0" y="0" width="360" height="504" xlink:href="#g3893" />
  <use transform="translate(127,664)" id="use3903" x="0" y="0" width="360" height="504" xlink:href="#g3893" />
</svg>
